<?xml version="1.0" encoding="utf-8"?>
<!-- Generator: Adobe Illustrator 24.1.2, SVG Export Plug-In . SVG Version: 6.00 Build 0)  -->
<svg version="1.1" id="Layer_1" xmlns="http://www.w3.org/2000/svg" xmlns:xlink="http://www.w3.org/1999/xlink" x="0px" y="0px"
	 viewBox="0 0 200 200" style="enable-background:new 0 0 200 200;" xml:space="preserve">
<style type="text/css">
	.st0{enable-background:new    ;}
	.st1{fill:#231F20;}
</style>
<g>
	<g>
		<g class="st0">
			<path class="st1" d="M60.5,163.5H59v-7.3l-8.5-12.8h1.7l7.6,11.3l7.5-11.3h1.7l-8.5,12.8C60.4,156.2,60.4,163.5,60.5,163.5z"/>
		</g>
		<g class="st0">
			<path class="st1" d="M95.6,154.9c0,5.4-3.3,9-8.2,9c-5,0-8.3-3.6-8.3-9v-11.4h1.5v11.4c0,4.6,2.7,7.6,6.8,7.6c4,0,6.7-3,6.7-7.6
				v-11.4h1.5V154.9z"/>
		</g>
		<g class="st0">
			<path class="st1" d="M121.8,163.5h-15.2v-1l13.2-17.8H107v-1.3h14.8v1.1l-13,17.7h13V163.5z"/>
			<path class="st1" d="M149.6,154.9c0,5.4-3.3,9-8.2,9c-5,0-8.3-3.6-8.3-9v-11.4h1.5v11.4c0,4.6,2.7,7.6,6.8,7.6c4,0,6.7-3,6.7-7.6
				v-11.4h1.5V154.9z"/>
		</g>
	</g>
	<path class="st1" d="M101.5,117.1C79.1,117.1,61,99,61,76.6S79.1,36,101.5,36S142,54.1,142,76.6S123.8,117.1,101.5,117.1z
		 M101.5,37C79.7,37,62,54.8,62,76.6s17.7,39.5,39.5,39.5c9.8,0,14.8-11.1,21.5-17.3c7-6.5,18-10.3,18-22.2
		C141,54.8,123.3,37,101.5,37z"/>
</g>
</svg>
